<?xml version="1.0" encoding="UTF-8"?>
<svg width="1840" height="1075" viewBox="0 0 1840 1075" fill="none"
    xmlns="http://www.w3.org/2000/svg">
    <polygon points="92.0,0.0 184.0,53.75 184.0,161.25 92.0,215.0 0.0,161.25 0.0,53.75" fill="#E0E060" fill-opacity="0.7" stroke="#FFF" storke-opacity="0" stroke-width="0" stroke-linejoin="round"/>
    <polygon points="276.0,0.0 368.0,53.75 368.0,161.25 276.0,215.0 184.0,161.25 184.0,53.75" fill="#C08080" fill-opacity="0.7" stroke="#FFF" storke-opacity="0" stroke-width="0" stroke-linejoin="round"/>
    <polygon points="460.0,0.0 552.0,53.75 552.0,161.25 460.0,215.0 368.0,161.25 368.0,53.75" fill="#E0A000" fill-opacity="0.7" stroke="#FFF" storke-opacity="0" stroke-width="0" stroke-linejoin="round"/>
    <polygon points="644.0,0.0 736.0,53.75 736.0,161.25 644.0,215.0 552.0,161.25 552.0,53.75" fill="#80C040" fill-opacity="0.7" stroke="#FFF" storke-opacity="0" stroke-width="0" stroke-linejoin="round"/>
    <polygon points="828.0,0.0 920.0,53.75 920.0,161.25 828.0,215.0 736.0,161.25 736.0,53.75" fill="#80A080" fill-opacity="0.7" stroke="#FFF" storke-opacity="0" stroke-width="0" stroke-linejoin="round"/>
    <polygon points="1012.0,0.0 1104.0,53.75 1104.0,161.25 1012.0,215.0 920.0,161.25 920.0,53.75" fill="#A0A020" fill-opacity="0.7" stroke="#FFF" storke-opacity="0" stroke-width="0" stroke-linejoin="round"/>
    <polygon points="1196.0,0.0 1288.0,53.75 1288.0,161.25 1196.0,215.0 1104.0,161.25 1104.0,53.75" fill="#808000" fill-opacity="0.7" stroke="#FFF" storke-opacity="0" stroke-width="0" stroke-linejoin="round"/>
    <polygon points="1380.0,0.0 1472.0,53.75 1472.0,161.25 1380.0,215.0 1288.0,161.25 1288.0,53.75" fill="#80C000" fill-opacity="0.7" stroke="#FFF" storke-opacity="0" stroke-width="0" stroke-linejoin="round"/>
    <polygon points="1564.0,0.0 1656.0,53.75 1656.0,161.25 1564.0,215.0 1472.0,161.25 1472.0,53.75" fill="#C0A040" fill-opacity="0.7" stroke="#FFF" storke-opacity="0" stroke-width="0" stroke-linejoin="round"/>
    <polygon points="1748.0,0.0 1840.0,53.75 1840.0,161.25 1748.0,215.0 1656.0,161.25 1656.0,53.75" fill="#80C0C0" fill-opacity="0.7" stroke="#FFF" storke-opacity="0" stroke-width="0" stroke-linejoin="round"/>
    <polygon points="92.0,215.0 184.0,268.75 184.0,376.25 92.0,430.0 0.0,376.25 0.0,268.75" fill="#80E080" fill-opacity="0.7" stroke="#FFF" storke-opacity="0" stroke-width="0" stroke-linejoin="round"/>
    <polygon points="276.0,215.0 368.0,268.75 368.0,376.25 276.0,430.0 184.0,376.25 184.0,268.75" fill="#E08040" fill-opacity="0.7" stroke="#FFF" storke-opacity="0" stroke-width="0" stroke-linejoin="round"/>
    <polygon points="460.0,215.0 552.0,268.75 552.0,376.25 460.0,430.0 368.0,376.25 368.0,268.75" fill="#804080" fill-opacity="0.7" stroke="#FFF" storke-opacity="0" stroke-width="0" stroke-linejoin="round"/>
    <polygon points="644.0,215.0 736.0,268.75 736.0,376.25 644.0,430.0 552.0,376.25 552.0,268.75" fill="#C0A020" fill-opacity="0.7" stroke="#FFF" storke-opacity="0" stroke-width="0" stroke-linejoin="round"/>
    <polygon points="828.0,215.0 920.0,268.75 920.0,376.25 828.0,430.0 736.0,376.25 736.0,268.75" fill="#808040" fill-opacity="0.7" stroke="#FFF" storke-opacity="0" stroke-width="0" stroke-linejoin="round"/>
    <polygon points="1012.0,215.0 1104.0,268.75 1104.0,376.25 1012.0,430.0 920.0,376.25 920.0,268.75" fill="#804000" fill-opacity="0.7" stroke="#FFF" storke-opacity="0" stroke-width="0" stroke-linejoin="round"/>
    <polygon points="1196.0,215.0 1288.0,268.75 1288.0,376.25 1196.0,430.0 1104.0,376.25 1104.0,268.75" fill="#A06000" fill-opacity="0.7" stroke="#FFF" storke-opacity="0" stroke-width="0" stroke-linejoin="round"/>
    <polygon points="1380.0,215.0 1472.0,268.75 1472.0,376.25 1380.0,430.0 1288.0,376.25 1288.0,268.75" fill="#60E040" fill-opacity="0.7" stroke="#FFF" storke-opacity="0" stroke-width="0" stroke-linejoin="round"/>
    <polygon points="1564.0,215.0 1656.0,268.75 1656.0,376.25 1564.0,430.0 1472.0,376.25 1472.0,268.75" fill="#806020" fill-opacity="0.7" stroke="#FFF" storke-opacity="0" stroke-width="0" stroke-linejoin="round"/>
    <polygon points="1748.0,215.0 1840.0,268.75 1840.0,376.25 1748.0,430.0 1656.0,376.25 1656.0,268.75" fill="#206080" fill-opacity="0.7" stroke="#FFF" storke-opacity="0" stroke-width="0" stroke-linejoin="round"/>
    <polygon points="92.0,430.0 184.0,483.75 184.0,591.25 92.0,645.0 0.0,591.25 0.0,483.75" fill="#608040" fill-opacity="0.7" stroke="#FFF" storke-opacity="0" stroke-width="0" stroke-linejoin="round"/>
    <polygon points="276.0,430.0 368.0,483.75 368.0,591.25 276.0,645.0 184.0,591.25 184.0,483.75" fill="#804040" fill-opacity="0.7" stroke="#FFF" storke-opacity="0" stroke-width="0" stroke-linejoin="round"/>
    <polygon points="460.0,430.0 552.0,483.75 552.0,591.25 460.0,645.0 368.0,591.25 368.0,483.75" fill="#806040" fill-opacity="0.7" stroke="#FFF" storke-opacity="0" stroke-width="0" stroke-linejoin="round"/>
    <polygon points="644.0,430.0 736.0,483.75 736.0,591.25 644.0,645.0 552.0,591.25 552.0,483.75" fill="#C06000" fill-opacity="0.7" stroke="#FFF" storke-opacity="0" stroke-width="0" stroke-linejoin="round"/>
    <polygon points="828.0,430.0 920.0,483.75 920.0,591.25 828.0,645.0 736.0,591.25 736.0,483.75" fill="#608020" fill-opacity="0.7" stroke="#FFF" storke-opacity="0" stroke-width="0" stroke-linejoin="round"/>
    <polygon points="1012.0,430.0 1104.0,483.75 1104.0,591.25 1012.0,645.0 920.0,591.25 920.0,483.75" fill="#A04060" fill-opacity="0.7" stroke="#FFF" storke-opacity="0" stroke-width="0" stroke-linejoin="round"/>
    <polygon points="1196.0,430.0 1288.0,483.75 1288.0,591.25 1196.0,645.0 1104.0,591.25 1104.0,483.75" fill="#404080" fill-opacity="0.7" stroke="#FFF" storke-opacity="0" stroke-width="0" stroke-linejoin="round"/>
    <polygon points="1380.0,430.0 1472.0,483.75 1472.0,591.25 1380.0,645.0 1288.0,591.25 1288.0,483.75" fill="#404040" fill-opacity="0.7" stroke="#FFF" storke-opacity="0" stroke-width="0" stroke-linejoin="round"/>
    <polygon points="1564.0,430.0 1656.0,483.75 1656.0,591.25 1564.0,645.0 1472.0,591.25 1472.0,483.75" fill="#808080" fill-opacity="0.7" stroke="#FFF" storke-opacity="0" stroke-width="0" stroke-linejoin="round"/>
    <polygon points="1748.0,430.0 1840.0,483.75 1840.0,591.25 1748.0,645.0 1656.0,591.25 1656.0,483.75" fill="#404000" fill-opacity="0.7" stroke="#FFF" storke-opacity="0" stroke-width="0" stroke-linejoin="round"/>
    <polygon points="92.0,645.0 184.0,698.75 184.0,806.25 92.0,860.0 0.0,806.25 0.0,698.75" fill="#00A000" fill-opacity="0.7" stroke="#FFF" storke-opacity="0" stroke-width="0" stroke-linejoin="round"/>
    <polygon points="276.0,645.0 368.0,698.75 368.0,806.25 276.0,860.0 184.0,806.25 184.0,698.75" fill="#0000A0" fill-opacity="0.7" stroke="#FFF" storke-opacity="0" stroke-width="0" stroke-linejoin="round"/>
    <polygon points="460.0,645.0 552.0,698.75 552.0,806.25 460.0,860.0 368.0,806.25 368.0,698.75" fill="#006000" fill-opacity="0.7" stroke="#FFF" storke-opacity="0" stroke-width="0" stroke-linejoin="round"/>
    <polygon points="644.0,645.0 736.0,698.75 736.0,806.25 644.0,860.0 552.0,806.25 552.0,698.75" fill="#006060" fill-opacity="0.7" stroke="#FFF" storke-opacity="0" stroke-width="0" stroke-linejoin="round"/>
    <polygon points="828.0,645.0 920.0,698.75 920.0,806.25 828.0,860.0 736.0,806.25 736.0,698.75" fill="#6060A0" fill-opacity="0.7" stroke="#FFF" storke-opacity="0" stroke-width="0" stroke-linejoin="round"/>
    <polygon points="1012.0,645.0 1104.0,698.75 1104.0,806.25 1012.0,860.0 920.0,806.25 920.0,698.75" fill="#000060" fill-opacity="0.7" stroke="#FFF" storke-opacity="0" stroke-width="0" stroke-linejoin="round"/>
    <polygon points="1196.0,645.0 1288.0,698.75 1288.0,806.25 1196.0,860.0 1104.0,806.25 1104.0,698.75" fill="#600000" fill-opacity="0.7" stroke="#FFF" storke-opacity="0" stroke-width="0" stroke-linejoin="round"/>
    <polygon points="1380.0,645.0 1472.0,698.75 1472.0,806.25 1380.0,860.0 1288.0,806.25 1288.0,698.75" fill="#600060" fill-opacity="0.7" stroke="#FFF" storke-opacity="0" stroke-width="0" stroke-linejoin="round"/>
    <polygon points="1564.0,645.0 1656.0,698.75 1656.0,806.25 1564.0,860.0 1472.0,806.25 1472.0,698.75" fill="#A000A0" fill-opacity="0.7" stroke="#FFF" storke-opacity="0" stroke-width="0" stroke-linejoin="round"/>
    <polygon points="1748.0,645.0 1840.0,698.75 1840.0,806.25 1748.0,860.0 1656.0,806.25 1656.0,698.75" fill="#00A0A0" fill-opacity="0.7" stroke="#FFF" storke-opacity="0" stroke-width="0" stroke-linejoin="round"/>
    <polygon points="92.0,860.0 184.0,913.75 184.0,1021.25 92.0,1075.0 0.0,1021.25 0.0,913.75" fill="#A00000" fill-opacity="0.7" stroke="#FFF" storke-opacity="0" stroke-width="0" stroke-linejoin="round"/>
    <polygon points="276.0,860.0 368.0,913.75 368.0,1021.25 276.0,1075.0 184.0,1021.25 184.0,913.75" fill="#4000A0" fill-opacity="0.7" stroke="#FFF" storke-opacity="0" stroke-width="0" stroke-linejoin="round"/>
    <polygon points="460.0,860.0 552.0,913.75 552.0,1021.25 460.0,1075.0 368.0,1021.25 368.0,913.75" fill="#505080" fill-opacity="0.7" stroke="#FFF" storke-opacity="0" stroke-width="0" stroke-linejoin="round"/>
</svg>