<?xml version="1.0" encoding="UTF-8"?>
<svg width="1840" height="1075" viewBox="0 0 1840 1075" fill="none"
    xmlns="http://www.w3.org/2000/svg">
    <polygon points="92.0,0.0 184.0,53.75 184.0,161.25 92.0,215.0 0.0,161.25 0.0,53.75" fill="#D5D6A0" fill-opacity="0.7" stroke="#FFF" storke-opacity="0" stroke-width="0" stroke-linejoin="round"/>
    <polygon points="276.0,0.0 368.0,53.75 368.0,161.25 276.0,215.0 184.0,161.25 184.0,53.75" fill="#AB8D95" fill-opacity="0.7" stroke="#FFF" storke-opacity="0" stroke-width="0" stroke-linejoin="round"/>
    <polygon points="460.0,0.0 552.0,53.75 552.0,161.25 460.0,215.0 368.0,161.25 368.0,53.75" fill="#C98B56" fill-opacity="0.7" stroke="#FFF" storke-opacity="0" stroke-width="0" stroke-linejoin="round"/>
    <polygon points="644.0,0.0 736.0,53.75 736.0,161.25 644.0,215.0 552.0,161.25 552.0,53.75" fill="#90CD59" fill-opacity="0.7" stroke="#FFF" storke-opacity="0" stroke-width="0" stroke-linejoin="round"/>
    <polygon points="828.0,0.0 920.0,53.75 920.0,161.25 828.0,215.0 736.0,161.25 736.0,53.75" fill="#8BA79E" fill-opacity="0.7" stroke="#FFF" storke-opacity="0" stroke-width="0" stroke-linejoin="round"/>
    <polygon points="1012.0,0.0 1104.0,53.75 1104.0,161.25 1012.0,215.0 920.0,161.25 920.0,53.75" fill="#CEC76D" fill-opacity="0.7" stroke="#FFF" storke-opacity="0" stroke-width="0" stroke-linejoin="round"/>
    <polygon points="1196.0,0.0 1288.0,53.75 1288.0,161.25 1196.0,215.0 1104.0,161.25 1104.0,53.75" fill="#968A1B" fill-opacity="0.7" stroke="#FFF" storke-opacity="0" stroke-width="0" stroke-linejoin="round"/>
    <polygon points="1380.0,0.0 1472.0,53.75 1472.0,161.25 1380.0,215.0 1288.0,161.25 1288.0,53.75" fill="#7FB426" fill-opacity="0.7" stroke="#FFF" storke-opacity="0" stroke-width="0" stroke-linejoin="round"/>
    <polygon points="1564.0,0.0 1656.0,53.75 1656.0,161.25 1564.0,215.0 1472.0,161.25 1472.0,53.75" fill="#D8AD34" fill-opacity="0.7" stroke="#FFF" storke-opacity="0" stroke-width="0" stroke-linejoin="round"/>
    <polygon points="1748.0,0.0 1840.0,53.75 1840.0,161.25 1748.0,215.0 1656.0,161.25 1656.0,53.75" fill="#8AA59D" fill-opacity="0.7" stroke="#FFF" storke-opacity="0" stroke-width="0" stroke-linejoin="round"/>
    <polygon points="92.0,215.0 184.0,268.75 184.0,376.25 92.0,430.0 0.0,376.25 0.0,268.75" fill="#92D296" fill-opacity="0.7" stroke="#FFF" storke-opacity="0" stroke-width="0" stroke-linejoin="round"/>
    <polygon points="276.0,215.0 368.0,268.75 368.0,376.25 276.0,430.0 184.0,376.25 184.0,268.75" fill="#CC9058" fill-opacity="0.7" stroke="#FFF" storke-opacity="0" stroke-width="0" stroke-linejoin="round"/>
    <polygon points="460.0,215.0 552.0,268.75 552.0,376.25 460.0,430.0 368.0,376.25 368.0,268.75" fill="#854F85" fill-opacity="0.7" stroke="#FFF" storke-opacity="0" stroke-width="0" stroke-linejoin="round"/>
    <polygon points="644.0,215.0 736.0,268.75 736.0,376.25 644.0,430.0 552.0,376.25 552.0,268.75" fill="#DA9221" fill-opacity="0.7" stroke="#FFF" storke-opacity="0" stroke-width="0" stroke-linejoin="round"/>
    <polygon points="828.0,215.0 920.0,268.75 920.0,376.25 828.0,430.0 736.0,376.25 736.0,268.75" fill="#797A44" fill-opacity="0.7" stroke="#FFF" storke-opacity="0" stroke-width="0" stroke-linejoin="round"/>
    <polygon points="1012.0,215.0 1104.0,268.75 1104.0,376.25 1012.0,430.0 920.0,376.25 920.0,268.75" fill="#8E6C1B" fill-opacity="0.7" stroke="#FFF" storke-opacity="0" stroke-width="0" stroke-linejoin="round"/>
    <polygon points="1196.0,215.0 1288.0,268.75 1288.0,376.25 1196.0,430.0 1104.0,376.25 1104.0,268.75" fill="#968E1C" fill-opacity="0.7" stroke="#FFF" storke-opacity="0" stroke-width="0" stroke-linejoin="round"/>
    <polygon points="1380.0,215.0 1472.0,268.75 1472.0,376.25 1380.0,430.0 1288.0,376.25 1288.0,268.75" fill="#AEB078" fill-opacity="0.7" stroke="#FFF" storke-opacity="0" stroke-width="0" stroke-linejoin="round"/>
    <polygon points="1564.0,215.0 1656.0,268.75 1656.0,376.25 1564.0,430.0 1472.0,376.25 1472.0,268.75" fill="#8E6E1B" fill-opacity="0.7" stroke="#FFF" storke-opacity="0" stroke-width="0" stroke-linejoin="round"/>
    <polygon points="1748.0,215.0 1840.0,268.75 1840.0,376.25 1748.0,430.0 1656.0,376.25 1656.0,268.75" fill="#767743" fill-opacity="0.7" stroke="#FFF" storke-opacity="0" stroke-width="0" stroke-linejoin="round"/>
    <polygon points="92.0,430.0 184.0,483.75 184.0,591.25 92.0,645.0 0.0,591.25 0.0,483.75" fill="#4E7742" fill-opacity="0.7" stroke="#FFF" storke-opacity="0" stroke-width="0" stroke-linejoin="round"/>
    <polygon points="276.0,430.0 368.0,483.75 368.0,591.25 276.0,645.0 184.0,591.25 184.0,483.75" fill="#8B5156" fill-opacity="0.7" stroke="#FFF" storke-opacity="0" stroke-width="0" stroke-linejoin="round"/>
    <polygon points="460.0,430.0 552.0,483.75 552.0,591.25 460.0,645.0 368.0,591.25 368.0,483.75" fill="#777844" fill-opacity="0.7" stroke="#FFF" storke-opacity="0" stroke-width="0" stroke-linejoin="round"/>
    <polygon points="644.0,430.0 736.0,483.75 736.0,591.25 644.0,645.0 552.0,591.25 552.0,483.75" fill="#BC5820" fill-opacity="0.7" stroke="#FFF" storke-opacity="0" stroke-width="0" stroke-linejoin="round"/>
    <polygon points="828.0,430.0 920.0,483.75 920.0,591.25 828.0,645.0 736.0,591.25 736.0,483.75" fill="#56872F" fill-opacity="0.7" stroke="#FFF" storke-opacity="0" stroke-width="0" stroke-linejoin="round"/>
    <polygon points="1012.0,430.0 1104.0,483.75 1104.0,591.25 1012.0,645.0 920.0,591.25 920.0,483.75" fill="#8C6D1A" fill-opacity="0.7" stroke="#FFF" storke-opacity="0" stroke-width="0" stroke-linejoin="round"/>
    <polygon points="1196.0,430.0 1288.0,483.75 1288.0,591.25 1196.0,645.0 1104.0,591.25 1104.0,483.75" fill="#4D4D7E" fill-opacity="0.7" stroke="#FFF" storke-opacity="0" stroke-width="0" stroke-linejoin="round"/>
    <polygon points="1380.0,430.0 1472.0,483.75 1472.0,591.25 1380.0,645.0 1288.0,591.25 1288.0,483.75" fill="#000000" fill-opacity="0.7" stroke="#FFF" storke-opacity="0" stroke-width="0" stroke-linejoin="round"/>
    <polygon points="1564.0,430.0 1656.0,483.75 1656.0,591.25 1564.0,645.0 1472.0,591.25 1472.0,483.75" fill="#666666" fill-opacity="0.7" stroke="#FFF" storke-opacity="0" stroke-width="0" stroke-linejoin="round"/>
    <polygon points="1748.0,430.0 1840.0,483.75 1840.0,591.25 1748.0,645.0 1656.0,591.25 1656.0,483.75" fill="#AAAAAA" fill-opacity="0.7" stroke="#FFF" storke-opacity="0" stroke-width="0" stroke-linejoin="round"/>
    <polygon points="92.0,645.0 184.0,698.75 184.0,806.25 92.0,860.0 0.0,806.25 0.0,698.75" fill="#0000AA" fill-opacity="0.7" stroke="#FFF" storke-opacity="0" stroke-width="0" stroke-linejoin="round"/>
    <polygon points="276.0,645.0 368.0,698.75 368.0,806.25 276.0,860.0 184.0,806.25 184.0,698.75" fill="#00AA00" fill-opacity="0.7" stroke="#FFF" storke-opacity="0" stroke-width="0" stroke-linejoin="round"/>
    <polygon points="460.0,645.0 552.0,698.75 552.0,806.25 460.0,860.0 368.0,806.25 368.0,698.75" fill="#006600" fill-opacity="0.7" stroke="#FFF" storke-opacity="0" stroke-width="0" stroke-linejoin="round"/>
    <polygon points="644.0,645.0 736.0,698.75 736.0,806.25 644.0,860.0 552.0,806.25 552.0,698.75" fill="#006666" fill-opacity="0.7" stroke="#FFF" storke-opacity="0" stroke-width="0" stroke-linejoin="round"/>
    <polygon points="828.0,645.0 920.0,698.75 920.0,806.25 828.0,860.0 736.0,806.25 736.0,698.75" fill="#666600" fill-opacity="0.7" stroke="#FFF" storke-opacity="0" stroke-width="0" stroke-linejoin="round"/>
    <polygon points="1012.0,645.0 1104.0,698.75 1104.0,806.25 1012.0,860.0 920.0,806.25 920.0,698.75" fill="#000066" fill-opacity="0.7" stroke="#FFF" storke-opacity="0" stroke-width="0" stroke-linejoin="round"/>
    <polygon points="1196.0,645.0 1288.0,698.75 1288.0,806.25 1196.0,860.0 1104.0,806.25 1104.0,698.75" fill="#660000" fill-opacity="0.7" stroke="#FFF" storke-opacity="0" stroke-width="0" stroke-linejoin="round"/>
    <polygon points="1380.0,645.0 1472.0,698.75 1472.0,806.25 1380.0,860.0 1288.0,806.25 1288.0,698.75" fill="#660066" fill-opacity="0.7" stroke="#FFF" storke-opacity="0" stroke-width="0" stroke-linejoin="round"/>
    <polygon points="1564.0,645.0 1656.0,698.75 1656.0,806.25 1564.0,860.0 1472.0,806.25 1472.0,698.75" fill="#AA00AA" fill-opacity="0.7" stroke="#FFF" storke-opacity="0" stroke-width="0" stroke-linejoin="round"/>
    <polygon points="1748.0,645.0 1840.0,698.75 1840.0,806.25 1748.0,860.0 1656.0,806.25 1656.0,698.75" fill="#00AAAA" fill-opacity="0.7" stroke="#FFF" storke-opacity="0" stroke-width="0" stroke-linejoin="round"/>
    <polygon points="92.0,860.0 184.0,913.75 184.0,1021.25 92.0,1075.0 0.0,1021.25 0.0,913.75" fill="#AA0000" fill-opacity="0.7" stroke="#FFF" storke-opacity="0" stroke-width="0" stroke-linejoin="round"/>
    <polygon points="276.0,860.0 368.0,913.75 368.0,1021.25 276.0,1075.0 184.0,1021.25 184.0,913.75" fill="#AAAA00" fill-opacity="0.7" stroke="#FFF" storke-opacity="0" stroke-width="0" stroke-linejoin="round"/>
    <polygon points="460.0,860.0 552.0,913.75 552.0,1021.25 460.0,1075.0 368.0,1021.25 368.0,913.75" fill="#515181" fill-opacity="0.7" stroke="#FFF" storke-opacity="0" stroke-width="0" stroke-linejoin="round"/>
</svg>