<?xml version="1.0" encoding="UTF-8"?>
<svg width="1758" height="1990" viewBox="0 0 1758 1990" fill="none"
	xmlns="http://www.w3.org/2000/svg">
	<line x1="339.00" y1="30.00" x2="431.00" y2="83.75" style="stroke:#423308;stroke-width:20;stroke-linecap:round"/>
	<line x1="647.00" y1="83.75" x2="647.00" y2="191.25" style="stroke:#423308;stroke-width:20;stroke-linecap:round"/>
	<line x1="771.00" y1="30.00" x2="863.00" y2="83.75" style="stroke:#423308;stroke-width:20;stroke-linecap:round"/>
	<line x1="863.00" y1="83.75" x2="863.00" y2="191.25" style="stroke:#423308;stroke-width:20;stroke-linecap:round"/>
	<line x1="1079.00" y1="191.25" x2="987.00" y2="245.00" style="stroke:#423308;stroke-width:20;stroke-linecap:round"/>
	<line x1="1203.00" y1="30.00" x2="1295.00" y2="83.75" style="stroke:#423308;stroke-width:20;stroke-linecap:round"/>
	<line x1="1295.00" y1="191.25" x2="1203.00" y2="245.00" style="stroke:#423308;stroke-width:20;stroke-linecap:round"/>
	<line x1="1511.00" y1="83.75" x2="1511.00" y2="191.25" style="stroke:#423308;stroke-width:20;stroke-linecap:round"/>
	<line x1="1511.00" y1="191.25" x2="1419.00" y2="245.00" style="stroke:#423308;stroke-width:20;stroke-linecap:round"/>
	<line x1="1635.00" y1="30.00" x2="1727.00" y2="83.75" style="stroke:#423308;stroke-width:20;stroke-linecap:round"/>
	<line x1="1727.00" y1="83.75" x2="1727.00" y2="191.25" style="stroke:#423308;stroke-width:20;stroke-linecap:round"/>
	<line x1="1727.00" y1="191.25" x2="1635.00" y2="245.00" style="stroke:#423308;stroke-width:20;stroke-linecap:round"/>
	<line x1="123.00" y1="490.00" x2="31.00" y2="436.25" style="stroke:#423308;stroke-width:20;stroke-linecap:round"/>
	<line x1="339.00" y1="275.00" x2="431.00" y2="328.75" style="stroke:#423308;stroke-width:20;stroke-linecap:round"/>
	<line x1="339.00" y1="490.00" x2="247.00" y2="436.25" style="stroke:#423308;stroke-width:20;stroke-linecap:round"/>
	<line x1="647.00" y1="328.75" x2="647.00" y2="436.25" style="stroke:#423308;stroke-width:20;stroke-linecap:round"/>
	<line x1="555.00" y1="490.00" x2="463.00" y2="436.25" style="stroke:#423308;stroke-width:20;stroke-linecap:round"/>
	<line x1="771.00" y1="275.00" x2="863.00" y2="328.75" style="stroke:#423308;stroke-width:20;stroke-linecap:round"/>
	<line x1="863.00" y1="328.75" x2="863.00" y2="436.25" style="stroke:#423308;stroke-width:20;stroke-linecap:round"/>
	<line x1="771.00" y1="490.00" x2="679.00" y2="436.25" style="stroke:#423308;stroke-width:20;stroke-linecap:round"/>
	<line x1="1079.00" y1="436.25" x2="987.00" y2="490.00" style="stroke:#423308;stroke-width:20;stroke-linecap:round"/>
	<line x1="987.00" y1="490.00" x2="895.00" y2="436.25" style="stroke:#423308;stroke-width:20;stroke-linecap:round"/>
	<line x1="1203.00" y1="275.00" x2="1295.00" y2="328.75" style="stroke:#423308;stroke-width:20;stroke-linecap:round"/>
	<line x1="1295.00" y1="436.25" x2="1203.00" y2="490.00" style="stroke:#423308;stroke-width:20;stroke-linecap:round"/>
	<line x1="1203.00" y1="490.00" x2="1111.00" y2="436.25" style="stroke:#423308;stroke-width:20;stroke-linecap:round"/>
	<line x1="1511.00" y1="328.75" x2="1511.00" y2="436.25" style="stroke:#423308;stroke-width:20;stroke-linecap:round"/>
	<line x1="1511.00" y1="436.25" x2="1419.00" y2="490.00" style="stroke:#423308;stroke-width:20;stroke-linecap:round"/>
	<line x1="1419.00" y1="490.00" x2="1327.00" y2="436.25" style="stroke:#423308;stroke-width:20;stroke-linecap:round"/>
	<line x1="1635.00" y1="275.00" x2="1727.00" y2="328.75" style="stroke:#423308;stroke-width:20;stroke-linecap:round"/>
	<line x1="1727.00" y1="328.75" x2="1727.00" y2="436.25" style="stroke:#423308;stroke-width:20;stroke-linecap:round"/>
	<line x1="1727.00" y1="436.25" x2="1635.00" y2="490.00" style="stroke:#423308;stroke-width:20;stroke-linecap:round"/>
	<line x1="1635.00" y1="490.00" x2="1543.00" y2="436.25" style="stroke:#423308;stroke-width:20;stroke-linecap:round"/>
	<line x1="31.00" y1="681.25" x2="31.00" y2="573.75" style="stroke:#423308;stroke-width:20;stroke-linecap:round"/>
	<line x1="339.00" y1="520.00" x2="431.00" y2="573.75" style="stroke:#423308;stroke-width:20;stroke-linecap:round"/>
	<line x1="247.00" y1="681.25" x2="247.00" y2="573.75" style="stroke:#423308;stroke-width:20;stroke-linecap:round"/>
	<line x1="647.00" y1="573.75" x2="647.00" y2="681.25" style="stroke:#423308;stroke-width:20;stroke-linecap:round"/>
	<line x1="463.00" y1="681.25" x2="463.00" y2="573.75" style="stroke:#423308;stroke-width:20;stroke-linecap:round"/>
	<line x1="771.00" y1="520.00" x2="863.00" y2="573.75" style="stroke:#423308;stroke-width:20;stroke-linecap:round"/>
	<line x1="863.00" y1="573.75" x2="863.00" y2="681.25" style="stroke:#423308;stroke-width:20;stroke-linecap:round"/>
	<line x1="679.00" y1="681.25" x2="679.00" y2="573.75" style="stroke:#423308;stroke-width:20;stroke-linecap:round"/>
	<line x1="1079.00" y1="681.25" x2="987.00" y2="735.00" style="stroke:#423308;stroke-width:20;stroke-linecap:round"/>
	<line x1="895.00" y1="681.25" x2="895.00" y2="573.75" style="stroke:#423308;stroke-width:20;stroke-linecap:round"/>
	<line x1="1203.00" y1="520.00" x2="1295.00" y2="573.75" style="stroke:#423308;stroke-width:20;stroke-linecap:round"/>
	<line x1="1295.00" y1="681.25" x2="1203.00" y2="735.00" style="stroke:#423308;stroke-width:20;stroke-linecap:round"/>
	<line x1="1111.00" y1="681.25" x2="1111.00" y2="573.75" style="stroke:#423308;stroke-width:20;stroke-linecap:round"/>
	<line x1="1511.00" y1="573.75" x2="1511.00" y2="681.25" style="stroke:#423308;stroke-width:20;stroke-linecap:round"/>
	<line x1="1511.00" y1="681.25" x2="1419.00" y2="735.00" style="stroke:#423308;stroke-width:20;stroke-linecap:round"/>
	<line x1="1327.00" y1="681.25" x2="1327.00" y2="573.75" style="stroke:#423308;stroke-width:20;stroke-linecap:round"/>
	<line x1="1635.00" y1="520.00" x2="1727.00" y2="573.75" style="stroke:#423308;stroke-width:20;stroke-linecap:round"/>
	<line x1="1727.00" y1="573.75" x2="1727.00" y2="681.25" style="stroke:#423308;stroke-width:20;stroke-linecap:round"/>
	<line x1="1727.00" y1="681.25" x2="1635.00" y2="735.00" style="stroke:#423308;stroke-width:20;stroke-linecap:round"/>
	<line x1="1543.00" y1="681.25" x2="1543.00" y2="573.75" style="stroke:#423308;stroke-width:20;stroke-linecap:round"/>
	<line x1="123.00" y1="980.00" x2="31.00" y2="926.25" style="stroke:#423308;stroke-width:20;stroke-linecap:round"/>
	<line x1="31.00" y1="926.25" x2="31.00" y2="818.75" style="stroke:#423308;stroke-width:20;stroke-linecap:round"/>
	<line x1="339.00" y1="765.00" x2="431.00" y2="818.75" style="stroke:#423308;stroke-width:20;stroke-linecap:round"/>
	<line x1="339.00" y1="980.00" x2="247.00" y2="926.25" style="stroke:#423308;stroke-width:20;stroke-linecap:round"/>
	<line x1="247.00" y1="926.25" x2="247.00" y2="818.75" style="stroke:#423308;stroke-width:20;stroke-linecap:round"/>
	<line x1="647.00" y1="818.75" x2="647.00" y2="926.25" style="stroke:#423308;stroke-width:20;stroke-linecap:round"/>
	<line x1="555.00" y1="980.00" x2="463.00" y2="926.25" style="stroke:#423308;stroke-width:20;stroke-linecap:round"/>
	<line x1="463.00" y1="926.25" x2="463.00" y2="818.75" style="stroke:#423308;stroke-width:20;stroke-linecap:round"/>
	<line x1="771.00" y1="765.00" x2="863.00" y2="818.75" style="stroke:#423308;stroke-width:20;stroke-linecap:round"/>
	<line x1="863.00" y1="818.75" x2="863.00" y2="926.25" style="stroke:#423308;stroke-width:20;stroke-linecap:round"/>
	<line x1="771.00" y1="980.00" x2="679.00" y2="926.25" style="stroke:#423308;stroke-width:20;stroke-linecap:round"/>
	<line x1="679.00" y1="926.25" x2="679.00" y2="818.75" style="stroke:#423308;stroke-width:20;stroke-linecap:round"/>
	<line x1="1079.00" y1="926.25" x2="987.00" y2="980.00" style="stroke:#423308;stroke-width:20;stroke-linecap:round"/>
	<line x1="987.00" y1="980.00" x2="895.00" y2="926.25" style="stroke:#423308;stroke-width:20;stroke-linecap:round"/>
	<line x1="895.00" y1="926.25" x2="895.00" y2="818.75" style="stroke:#423308;stroke-width:20;stroke-linecap:round"/>
	<line x1="1203.00" y1="765.00" x2="1295.00" y2="818.75" style="stroke:#423308;stroke-width:20;stroke-linecap:round"/>
	<line x1="1295.00" y1="926.25" x2="1203.00" y2="980.00" style="stroke:#423308;stroke-width:20;stroke-linecap:round"/>
	<line x1="1203.00" y1="980.00" x2="1111.00" y2="926.25" style="stroke:#423308;stroke-width:20;stroke-linecap:round"/>
	<line x1="1111.00" y1="926.25" x2="1111.00" y2="818.75" style="stroke:#423308;stroke-width:20;stroke-linecap:round"/>
	<line x1="1511.00" y1="818.75" x2="1511.00" y2="926.25" style="stroke:#423308;stroke-width:20;stroke-linecap:round"/>
	<line x1="1511.00" y1="926.25" x2="1419.00" y2="980.00" style="stroke:#423308;stroke-width:20;stroke-linecap:round"/>
	<line x1="1419.00" y1="980.00" x2="1327.00" y2="926.25" style="stroke:#423308;stroke-width:20;stroke-linecap:round"/>
	<line x1="1327.00" y1="926.25" x2="1327.00" y2="818.75" style="stroke:#423308;stroke-width:20;stroke-linecap:round"/>
	<line x1="1635.00" y1="765.00" x2="1727.00" y2="818.75" style="stroke:#423308;stroke-width:20;stroke-linecap:round"/>
	<line x1="1727.00" y1="818.75" x2="1727.00" y2="926.25" style="stroke:#423308;stroke-width:20;stroke-linecap:round"/>
	<line x1="1727.00" y1="926.25" x2="1635.00" y2="980.00" style="stroke:#423308;stroke-width:20;stroke-linecap:round"/>
	<line x1="1635.00" y1="980.00" x2="1543.00" y2="926.25" style="stroke:#423308;stroke-width:20;stroke-linecap:round"/>
	<line x1="1543.00" y1="926.25" x2="1543.00" y2="818.75" style="stroke:#423308;stroke-width:20;stroke-linecap:round"/>
	<line x1="31.00" y1="1063.75" x2="123.00" y2="1010.00" style="stroke:#423308;stroke-width:20;stroke-linecap:round"/>
	<line x1="339.00" y1="1010.00" x2="431.00" y2="1063.75" style="stroke:#423308;stroke-width:20;stroke-linecap:round"/>
	<line x1="247.00" y1="1063.75" x2="339.00" y2="1010.00" style="stroke:#423308;stroke-width:20;stroke-linecap:round"/>
	<line x1="647.00" y1="1063.75" x2="647.00" y2="1171.25" style="stroke:#423308;stroke-width:20;stroke-linecap:round"/>
	<line x1="463.00" y1="1063.75" x2="555.00" y2="1010.00" style="stroke:#423308;stroke-width:20;stroke-linecap:round"/>
	<line x1="771.00" y1="1010.00" x2="863.00" y2="1063.75" style="stroke:#423308;stroke-width:20;stroke-linecap:round"/>
	<line x1="863.00" y1="1063.75" x2="863.00" y2="1171.25" style="stroke:#423308;stroke-width:20;stroke-linecap:round"/>
	<line x1="679.00" y1="1063.75" x2="771.00" y2="1010.00" style="stroke:#423308;stroke-width:20;stroke-linecap:round"/>
	<line x1="1079.00" y1="1171.25" x2="987.00" y2="1225.00" style="stroke:#423308;stroke-width:20;stroke-linecap:round"/>
	<line x1="895.00" y1="1063.75" x2="987.00" y2="1010.00" style="stroke:#423308;stroke-width:20;stroke-linecap:round"/>
	<line x1="1203.00" y1="1010.00" x2="1295.00" y2="1063.75" style="stroke:#423308;stroke-width:20;stroke-linecap:round"/>
	<line x1="1295.00" y1="1171.25" x2="1203.00" y2="1225.00" style="stroke:#423308;stroke-width:20;stroke-linecap:round"/>
	<line x1="1111.00" y1="1063.75" x2="1203.00" y2="1010.00" style="stroke:#423308;stroke-width:20;stroke-linecap:round"/>
	<line x1="1511.00" y1="1063.75" x2="1511.00" y2="1171.25" style="stroke:#423308;stroke-width:20;stroke-linecap:round"/>
	<line x1="1511.00" y1="1171.25" x2="1419.00" y2="1225.00" style="stroke:#423308;stroke-width:20;stroke-linecap:round"/>
	<line x1="1327.00" y1="1063.75" x2="1419.00" y2="1010.00" style="stroke:#423308;stroke-width:20;stroke-linecap:round"/>
	<line x1="1635.00" y1="1010.00" x2="1727.00" y2="1063.75" style="stroke:#423308;stroke-width:20;stroke-linecap:round"/>
	<line x1="1727.00" y1="1063.75" x2="1727.00" y2="1171.25" style="stroke:#423308;stroke-width:20;stroke-linecap:round"/>
	<line x1="1727.00" y1="1171.25" x2="1635.00" y2="1225.00" style="stroke:#423308;stroke-width:20;stroke-linecap:round"/>
	<line x1="1543.00" y1="1063.75" x2="1635.00" y2="1010.00" style="stroke:#423308;stroke-width:20;stroke-linecap:round"/>
	<line x1="123.00" y1="1470.00" x2="31.00" y2="1416.25" style="stroke:#423308;stroke-width:20;stroke-linecap:round"/>
	<line x1="31.00" y1="1308.75" x2="123.00" y2="1255.00" style="stroke:#423308;stroke-width:20;stroke-linecap:round"/>
	<line x1="339.00" y1="1255.00" x2="431.00" y2="1308.75" style="stroke:#423308;stroke-width:20;stroke-linecap:round"/>
	<line x1="339.00" y1="1470.00" x2="247.00" y2="1416.25" style="stroke:#423308;stroke-width:20;stroke-linecap:round"/>
	<line x1="247.00" y1="1308.75" x2="339.00" y2="1255.00" style="stroke:#423308;stroke-width:20;stroke-linecap:round"/>
	<line x1="647.00" y1="1308.75" x2="647.00" y2="1416.25" style="stroke:#423308;stroke-width:20;stroke-linecap:round"/>
	<line x1="555.00" y1="1470.00" x2="463.00" y2="1416.25" style="stroke:#423308;stroke-width:20;stroke-linecap:round"/>
	<line x1="463.00" y1="1308.75" x2="555.00" y2="1255.00" style="stroke:#423308;stroke-width:20;stroke-linecap:round"/>
	<line x1="771.00" y1="1255.00" x2="863.00" y2="1308.75" style="stroke:#423308;stroke-width:20;stroke-linecap:round"/>
	<line x1="863.00" y1="1308.75" x2="863.00" y2="1416.25" style="stroke:#423308;stroke-width:20;stroke-linecap:round"/>
	<line x1="771.00" y1="1470.00" x2="679.00" y2="1416.25" style="stroke:#423308;stroke-width:20;stroke-linecap:round"/>
	<line x1="679.00" y1="1308.75" x2="771.00" y2="1255.00" style="stroke:#423308;stroke-width:20;stroke-linecap:round"/>
	<line x1="1079.00" y1="1416.25" x2="987.00" y2="1470.00" style="stroke:#423308;stroke-width:20;stroke-linecap:round"/>
	<line x1="987.00" y1="1470.00" x2="895.00" y2="1416.25" style="stroke:#423308;stroke-width:20;stroke-linecap:round"/>
	<line x1="895.00" y1="1308.75" x2="987.00" y2="1255.00" style="stroke:#423308;stroke-width:20;stroke-linecap:round"/>
	<line x1="1203.00" y1="1255.00" x2="1295.00" y2="1308.75" style="stroke:#423308;stroke-width:20;stroke-linecap:round"/>
	<line x1="1295.00" y1="1416.25" x2="1203.00" y2="1470.00" style="stroke:#423308;stroke-width:20;stroke-linecap:round"/>
	<line x1="1203.00" y1="1470.00" x2="1111.00" y2="1416.25" style="stroke:#423308;stroke-width:20;stroke-linecap:round"/>
	<line x1="1111.00" y1="1308.75" x2="1203.00" y2="1255.00" style="stroke:#423308;stroke-width:20;stroke-linecap:round"/>
	<line x1="1511.00" y1="1308.75" x2="1511.00" y2="1416.25" style="stroke:#423308;stroke-width:20;stroke-linecap:round"/>
	<line x1="1511.00" y1="1416.25" x2="1419.00" y2="1470.00" style="stroke:#423308;stroke-width:20;stroke-linecap:round"/>
	<line x1="1419.00" y1="1470.00" x2="1327.00" y2="1416.25" style="stroke:#423308;stroke-width:20;stroke-linecap:round"/>
	<line x1="1327.00" y1="1308.75" x2="1419.00" y2="1255.00" style="stroke:#423308;stroke-width:20;stroke-linecap:round"/>
	<line x1="1635.00" y1="1255.00" x2="1727.00" y2="1308.75" style="stroke:#423308;stroke-width:20;stroke-linecap:round"/>
	<line x1="1727.00" y1="1308.75" x2="1727.00" y2="1416.25" style="stroke:#423308;stroke-width:20;stroke-linecap:round"/>
	<line x1="1727.00" y1="1416.25" x2="1635.00" y2="1470.00" style="stroke:#423308;stroke-width:20;stroke-linecap:round"/>
	<line x1="1635.00" y1="1470.00" x2="1543.00" y2="1416.25" style="stroke:#423308;stroke-width:20;stroke-linecap:round"/>
	<line x1="1543.00" y1="1308.75" x2="1635.00" y2="1255.00" style="stroke:#423308;stroke-width:20;stroke-linecap:round"/>
	<line x1="31.00" y1="1661.25" x2="31.00" y2="1553.75" style="stroke:#423308;stroke-width:20;stroke-linecap:round"/>
	<line x1="31.00" y1="1553.75" x2="123.00" y2="1500.00" style="stroke:#423308;stroke-width:20;stroke-linecap:round"/>
	<line x1="339.00" y1="1500.00" x2="431.00" y2="1553.75" style="stroke:#423308;stroke-width:20;stroke-linecap:round"/>
	<line x1="247.00" y1="1661.25" x2="247.00" y2="1553.75" style="stroke:#423308;stroke-width:20;stroke-linecap:round"/>
	<line x1="247.00" y1="1553.75" x2="339.00" y2="1500.00" style="stroke:#423308;stroke-width:20;stroke-linecap:round"/>
	<line x1="647.00" y1="1553.75" x2="647.00" y2="1661.25" style="stroke:#423308;stroke-width:20;stroke-linecap:round"/>
	<line x1="463.00" y1="1661.25" x2="463.00" y2="1553.75" style="stroke:#423308;stroke-width:20;stroke-linecap:round"/>
	<line x1="463.00" y1="1553.75" x2="555.00" y2="1500.00" style="stroke:#423308;stroke-width:20;stroke-linecap:round"/>
	<line x1="771.00" y1="1500.00" x2="863.00" y2="1553.75" style="stroke:#423308;stroke-width:20;stroke-linecap:round"/>
	<line x1="863.00" y1="1553.75" x2="863.00" y2="1661.25" style="stroke:#423308;stroke-width:20;stroke-linecap:round"/>
	<line x1="679.00" y1="1661.25" x2="679.00" y2="1553.75" style="stroke:#423308;stroke-width:20;stroke-linecap:round"/>
	<line x1="679.00" y1="1553.75" x2="771.00" y2="1500.00" style="stroke:#423308;stroke-width:20;stroke-linecap:round"/>
	<line x1="1079.00" y1="1661.25" x2="987.00" y2="1715.00" style="stroke:#423308;stroke-width:20;stroke-linecap:round"/>
	<line x1="895.00" y1="1661.25" x2="895.00" y2="1553.75" style="stroke:#423308;stroke-width:20;stroke-linecap:round"/>
	<line x1="895.00" y1="1553.75" x2="987.00" y2="1500.00" style="stroke:#423308;stroke-width:20;stroke-linecap:round"/>
	<line x1="1203.00" y1="1500.00" x2="1295.00" y2="1553.75" style="stroke:#423308;stroke-width:20;stroke-linecap:round"/>
	<line x1="1295.00" y1="1661.25" x2="1203.00" y2="1715.00" style="stroke:#423308;stroke-width:20;stroke-linecap:round"/>
	<line x1="1111.00" y1="1661.25" x2="1111.00" y2="1553.75" style="stroke:#423308;stroke-width:20;stroke-linecap:round"/>
	<line x1="1111.00" y1="1553.75" x2="1203.00" y2="1500.00" style="stroke:#423308;stroke-width:20;stroke-linecap:round"/>
	<line x1="1511.00" y1="1553.75" x2="1511.00" y2="1661.25" style="stroke:#423308;stroke-width:20;stroke-linecap:round"/>
	<line x1="1511.00" y1="1661.25" x2="1419.00" y2="1715.00" style="stroke:#423308;stroke-width:20;stroke-linecap:round"/>
	<line x1="1327.00" y1="1661.25" x2="1327.00" y2="1553.75" style="stroke:#423308;stroke-width:20;stroke-linecap:round"/>
	<line x1="1327.00" y1="1553.75" x2="1419.00" y2="1500.00" style="stroke:#423308;stroke-width:20;stroke-linecap:round"/>
	<line x1="1635.00" y1="1500.00" x2="1727.00" y2="1553.75" style="stroke:#423308;stroke-width:20;stroke-linecap:round"/>
	<line x1="1727.00" y1="1553.75" x2="1727.00" y2="1661.25" style="stroke:#423308;stroke-width:20;stroke-linecap:round"/>
	<line x1="1727.00" y1="1661.25" x2="1635.00" y2="1715.00" style="stroke:#423308;stroke-width:20;stroke-linecap:round"/>
	<line x1="1543.00" y1="1661.25" x2="1543.00" y2="1553.75" style="stroke:#423308;stroke-width:20;stroke-linecap:round"/>
	<line x1="1543.00" y1="1553.75" x2="1635.00" y2="1500.00" style="stroke:#423308;stroke-width:20;stroke-linecap:round"/>
	<line x1="123.00" y1="1960.00" x2="31.00" y2="1906.25" style="stroke:#423308;stroke-width:20;stroke-linecap:round"/>
	<line x1="31.00" y1="1906.25" x2="31.00" y2="1798.75" style="stroke:#423308;stroke-width:20;stroke-linecap:round"/>
	<line x1="31.00" y1="1798.75" x2="123.00" y2="1745.00" style="stroke:#423308;stroke-width:20;stroke-linecap:round"/>
	<line x1="339.00" y1="1745.00" x2="431.00" y2="1798.75" style="stroke:#423308;stroke-width:20;stroke-linecap:round"/>
	<line x1="339.00" y1="1960.00" x2="247.00" y2="1906.25" style="stroke:#423308;stroke-width:20;stroke-linecap:round"/>
	<line x1="247.00" y1="1906.25" x2="247.00" y2="1798.75" style="stroke:#423308;stroke-width:20;stroke-linecap:round"/>
	<line x1="247.00" y1="1798.75" x2="339.00" y2="1745.00" style="stroke:#423308;stroke-width:20;stroke-linecap:round"/>
	<line x1="647.00" y1="1798.75" x2="647.00" y2="1906.25" style="stroke:#423308;stroke-width:20;stroke-linecap:round"/>
	<line x1="555.00" y1="1960.00" x2="463.00" y2="1906.25" style="stroke:#423308;stroke-width:20;stroke-linecap:round"/>
	<line x1="463.00" y1="1906.25" x2="463.00" y2="1798.75" style="stroke:#423308;stroke-width:20;stroke-linecap:round"/>
	<line x1="463.00" y1="1798.75" x2="555.00" y2="1745.00" style="stroke:#423308;stroke-width:20;stroke-linecap:round"/>
	<line x1="771.00" y1="1745.00" x2="863.00" y2="1798.75" style="stroke:#423308;stroke-width:20;stroke-linecap:round"/>
	<line x1="863.00" y1="1798.75" x2="863.00" y2="1906.25" style="stroke:#423308;stroke-width:20;stroke-linecap:round"/>
	<line x1="771.00" y1="1960.00" x2="679.00" y2="1906.25" style="stroke:#423308;stroke-width:20;stroke-linecap:round"/>
	<line x1="679.00" y1="1906.25" x2="679.00" y2="1798.75" style="stroke:#423308;stroke-width:20;stroke-linecap:round"/>
	<line x1="679.00" y1="1798.75" x2="771.00" y2="1745.00" style="stroke:#423308;stroke-width:20;stroke-linecap:round"/>
	<line x1="1079.00" y1="1906.25" x2="987.00" y2="1960.00" style="stroke:#423308;stroke-width:20;stroke-linecap:round"/>
	<line x1="987.00" y1="1960.00" x2="895.00" y2="1906.25" style="stroke:#423308;stroke-width:20;stroke-linecap:round"/>
	<line x1="895.00" y1="1906.25" x2="895.00" y2="1798.75" style="stroke:#423308;stroke-width:20;stroke-linecap:round"/>
	<line x1="895.00" y1="1798.75" x2="987.00" y2="1745.00" style="stroke:#423308;stroke-width:20;stroke-linecap:round"/>
	<line x1="1203.00" y1="1745.00" x2="1295.00" y2="1798.75" style="stroke:#423308;stroke-width:20;stroke-linecap:round"/>
	<line x1="1295.00" y1="1906.25" x2="1203.00" y2="1960.00" style="stroke:#423308;stroke-width:20;stroke-linecap:round"/>
	<line x1="1203.00" y1="1960.00" x2="1111.00" y2="1906.25" style="stroke:#423308;stroke-width:20;stroke-linecap:round"/>
	<line x1="1111.00" y1="1906.25" x2="1111.00" y2="1798.75" style="stroke:#423308;stroke-width:20;stroke-linecap:round"/>
	<line x1="1111.00" y1="1798.75" x2="1203.00" y2="1745.00" style="stroke:#423308;stroke-width:20;stroke-linecap:round"/>
	<line x1="1511.00" y1="1798.75" x2="1511.00" y2="1906.25" style="stroke:#423308;stroke-width:20;stroke-linecap:round"/>
	<line x1="1511.00" y1="1906.25" x2="1419.00" y2="1960.00" style="stroke:#423308;stroke-width:20;stroke-linecap:round"/>
	<line x1="1419.00" y1="1960.00" x2="1327.00" y2="1906.25" style="stroke:#423308;stroke-width:20;stroke-linecap:round"/>
	<line x1="1327.00" y1="1906.25" x2="1327.00" y2="1798.75" style="stroke:#423308;stroke-width:20;stroke-linecap:round"/>
	<line x1="1327.00" y1="1798.75" x2="1419.00" y2="1745.00" style="stroke:#423308;stroke-width:20;stroke-linecap:round"/>
	<line x1="1635.00" y1="1745.00" x2="1727.00" y2="1798.75" style="stroke:#423308;stroke-width:20;stroke-linecap:round"/>
	<line x1="1727.00" y1="1798.75" x2="1727.00" y2="1906.25" style="stroke:#423308;stroke-width:20;stroke-linecap:round"/>
	<line x1="1727.00" y1="1906.25" x2="1635.00" y2="1960.00" style="stroke:#423308;stroke-width:20;stroke-linecap:round"/>
	<line x1="1635.00" y1="1960.00" x2="1543.00" y2="1906.25" style="stroke:#423308;stroke-width:20;stroke-linecap:round"/>
	<line x1="1543.00" y1="1906.25" x2="1543.00" y2="1798.75" style="stroke:#423308;stroke-width:20;stroke-linecap:round"/>
	<line x1="1543.00" y1="1798.75" x2="1635.00" y2="1745.00" style="stroke:#423308;stroke-width:20;stroke-linecap:round"/>
</svg>